HIERARCHY
ROOT Hips
{
	OFFSET 0.000000 0.000000 0.000000
	CHANNELS 6 Xposition Yposition Zposition Zrotation Yrotation Xrotation 
	JOINT LHipJoint
	{
		OFFSET 0.000000 0.000000 0.000000
		CHANNELS 3 Zrotation Yrotation Xrotation
		JOINT LeftUpLeg
		{
			OFFSET 1.363060 -1.794630 0.839290
			CHANNELS 3 Zrotation Yrotation Xrotation
			JOINT LeftLeg
			{
				OFFSET 2.448110 -6.726130 0.000000
				CHANNELS 3 Zrotation Yrotation Xrotation
				JOINT LeftFoot
				{
					OFFSET 2.562200 -7.039590 0.000000
					CHANNELS 3 Zrotation Yrotation Xrotation
					JOINT LeftToeBase
					{
						OFFSET 0.157640 -0.433110 2.322550
						CHANNELS 3 Zrotation Yrotation Xrotation
						End Site
						{
							OFFSET 0.000000 0.000000 0.000000
						}
					}
				}
			}
		}
	}
	JOINT RHipJoint
	{
		OFFSET 0.000000 0.000000 0.000000
		CHANNELS 3 Zrotation Yrotation Xrotation
		JOINT RightUpLeg
		{
			OFFSET -1.305520 -1.794630 0.839290
			CHANNELS 3 Zrotation Yrotation Xrotation
			JOINT RightLeg
			{
				OFFSET -2.542530 -6.985550 0.000000
				CHANNELS 3 Zrotation Yrotation Xrotation
				JOINT RightFoot
				{
					OFFSET -2.568260 -7.056230 0.000000
					CHANNELS 3 Zrotation Yrotation Xrotation
					JOINT RightToeBase
					{
						OFFSET -0.164730 -0.452590 2.363150
						CHANNELS 3 Zrotation Yrotation Xrotation
						End Site
						{
							OFFSET 0.000000 0.000000 0.000000
						}
					}
				}
			}
		}
	}
	JOINT LowerBack
	{
		OFFSET 0.000000 0.000000 0.000000
		CHANNELS 3 Zrotation Yrotation Xrotation
		JOINT Spine
		{
			OFFSET 0.028270 2.035590 -0.193380
			CHANNELS 3 Zrotation Yrotation Xrotation
			JOINT Spine1
			{
				OFFSET 0.056720 2.048850 -0.042750
				CHANNELS 3 Zrotation Yrotation Xrotation
				JOINT Neck
				{
					OFFSET 0.000000 0.000000 0.000000
					CHANNELS 3 Zrotation Yrotation Xrotation
					JOINT Neck1
					{
						OFFSET -0.054170 1.746240 0.172020
						CHANNELS 3 Zrotation Yrotation Xrotation
						JOINT Head
						{
							OFFSET 0.104070 1.761360 -0.123970
							CHANNELS 3 Zrotation Yrotation Xrotation
							End Site
							{
								OFFSET 0.000000 0.000000 0.000000
							}
						}
					}
				}
				JOINT LeftShoulder
				{
					OFFSET 0.000000 0.000000 0.000000
					CHANNELS 3 Zrotation Yrotation Xrotation
					JOINT LeftArm
					{
						OFFSET 3.362410 1.200890 -0.311210
						CHANNELS 3 Zrotation Yrotation Xrotation
						JOINT LeftForeArm
						{
							OFFSET 4.983000 -0.000000 -0.000000
							CHANNELS 3 Zrotation Yrotation Xrotation
							JOINT LeftHand
							{
								OFFSET 3.483560 -0.000000 -0.000000
								CHANNELS 3 Zrotation Yrotation Xrotation
								JOINT LeftFingerBase
								{
									OFFSET 0.000000 0.000000 0.000000
									CHANNELS 3 Zrotation Yrotation Xrotation
									JOINT LeftHandIndex1
									{
										OFFSET 0.715260 -0.000000 -0.000000
										CHANNELS 3 Zrotation Yrotation Xrotation
										End Site
										{
											OFFSET 0.000000 0.000000 0.000000
										}
									}
								}
								JOINT LThumb
								{
									OFFSET 0.000000 0.000000 0.000000
									CHANNELS 3 Zrotation Yrotation Xrotation
									End Site
									{
										OFFSET 0.000000 0.000000 0.000000
									}
								}
							}
						}
					}
				}
				JOINT RightShoulder
				{
					OFFSET 0.000000 0.000000 0.000000
					CHANNELS 3 Zrotation Yrotation Xrotation
					JOINT RightArm
					{
						OFFSET -3.136600 1.374050 -0.404650
						CHANNELS 3 Zrotation Yrotation Xrotation
						JOINT RightForeArm
						{
							OFFSET -5.241900 -0.000000 -0.000000
							CHANNELS 3 Zrotation Yrotation Xrotation
							JOINT RightHand
							{
								OFFSET -3.444170 -0.000000 -0.000000
								CHANNELS 3 Zrotation Yrotation Xrotation
								JOINT RightFingerBase
								{
									OFFSET 0.000000 0.000000 0.000000
									CHANNELS 3 Zrotation Yrotation Xrotation
									JOINT RightHandIndex1
									{
										OFFSET -0.622530 -0.000000 -0.000000
										CHANNELS 3 Zrotation Yrotation Xrotation
										End Site
										{
											OFFSET 0.000000 0.000000 0.000000
										}
									}
								}
								JOINT RThumb
								{
									OFFSET 0.000000 0.000000 0.000000
									CHANNELS 3 Zrotation Yrotation Xrotation
									End Site
									{
										OFFSET 0.000000 0.000000 0.000000
									}
								}
							}
						}
					}
				}
			}
		}
	}
}
MOTION
Frames: 11
Frame Time: 0.008333
0.554812 18.149207 4.963823 2.780731 -1.500675 -5.367482 -1.701078 4.496632 4.578131 -22.397063 -10.885401 -9.427461 0.260719 7.343749 25.530997 -1.498992 6.480730 8.556100 0.019800 -0.907400 -2.494000 -0.641936 -4.066816 3.830486 17.493933 6.442364 -20.541313 -14.341100 -17.712692 70.128492 4.714502 -20.197452 10.352393 -0.787400 -5.664500 15.814000 -2.020076 -0.877112 12.546109 0.615275 -1.621604 8.616020 3.125139 -0.703252 -9.667932 -4.657571 -4.220463 -6.665144 0.625356 -4.601394 26.050869 -0.502400 -2.286100 10.003200 -1.969935 1.190639 -1.036620 -90.136934 19.386907 -1.061779 19.366690 -27.858332 -4.864467 0.059840 -1.834035 -3.914802 13.688631 47.466579 10.526500 -7.125000 0.000000 0.000000 -52.670000 74.909500 -39.480100 1.081408 -0.574904 0.670728 93.594600 -18.970642 -11.376566 -108.676623 59.095966 -76.060601 -0.781256 0.577489 -52.545721 -15.623185 -5.469643 1.805500 7.125000 0.000000 0.000000 9.385600 -36.562800 1.968800 
0.564135 18.140391 5.145214 3.506816 -1.093043 -5.260059 -1.691105 4.499942 4.632708 -23.385541 -10.797770 -8.691972 0.219766 7.214872 25.349898 -1.370919 5.996029 8.002083 0.022400 -0.965200 -2.653000 -0.663335 -4.039283 3.775925 16.586142 6.373485 -21.930245 -14.147955 -17.789593 69.839038 4.533554 -19.097628 9.264549 -0.711600 -5.391000 15.027200 -2.688523 -1.001052 12.653041 0.419712 -1.901867 8.458729 3.410822 -0.815309 -9.822525 -3.990419 -4.053473 -7.558717 -0.057316 -4.256967 26.695770 -0.850400 -2.128700 10.400600 -1.967682 1.186498 -1.041307 -90.058463 19.277206 -0.521760 19.862552 -28.485151 -5.129656 0.066396 -1.829524 -4.417201 14.213218 47.626637 10.966700 -7.125000 0.000000 0.000000 -52.769900 75.194300 -39.839700 1.110523 -0.562594 0.668471 93.331051 -18.643306 -11.185882 -111.262351 58.703565 -78.188391 -0.808781 0.604120 -49.693399 -15.351700 -4.926340 1.629600 7.125000 0.000000 0.000000 9.572700 -36.028200 2.135500 
0.556231 18.135831 5.342514 3.001661 -1.193633 -5.528219 -1.689804 4.571277 4.755429 -22.863540 -10.416609 -7.892429 0.198640 7.165286 25.273796 -1.295515 5.730524 7.517973 0.019400 -0.898400 -2.469400 -0.648084 -4.013186 3.728634 17.378846 6.791752 -22.452010 -13.842539 -17.719422 69.205438 4.480800 -18.419483 7.935412 -0.595200 -4.938900 13.734300 -2.415144 -1.064770 12.906265 0.696781 -1.934021 8.458067 3.566130 -0.840438 -9.969631 -3.981797 -3.954816 -7.552862 -0.277211 -4.074220 26.789779 -0.919300 -2.066600 10.434000 -1.944577 1.172935 -1.047389 -90.138034 19.637275 0.548442 20.810216 -29.656330 -5.652045 0.087669 -1.825343 -5.445396 15.074325 48.068685 11.722800 -7.125000 0.000000 0.000000 -53.620400 75.752400 -41.098800 1.132648 -0.577786 0.668093 92.746096 -18.515188 -10.603019 -113.964928 58.222019 -80.389949 -0.849971 0.623295 -46.707363 -15.647326 -4.037525 1.421500 7.125000 0.000000 0.000000 9.262000 -35.175200 2.259500 
0.569911 18.123670 5.541842 4.072364 -0.522932 -5.431303 -1.664403 4.559905 4.792650 -24.318232 -10.485559 -6.983896 0.203409 7.076066 25.253080 -1.212730 5.372712 6.864373 0.025900 -1.039200 -2.856600 -0.664712 -4.003420 3.682675 16.003204 6.424538 -23.707751 -13.527615 -17.770437 68.487817 4.251082 -17.316753 7.084340 -0.592700 -4.928900 13.705900 -3.317426 -1.231860 12.587243 0.396573 -2.317503 8.432962 3.884597 -1.004402 -9.766504 -4.312201 -3.877042 -6.747994 -0.045633 -4.037156 26.168187 -0.763800 -2.059700 10.044800 -1.912218 1.142926 -1.046086 -90.096353 19.931974 1.733012 21.912381 -30.974905 -6.281211 0.101796 -1.806203 -6.309949 16.059525 48.106740 12.513300 -7.125000 0.000000 0.000000 -52.962100 76.153800 -40.924300 1.158110 -0.588645 0.671930 92.219789 -18.084032 -9.953399 -116.066105 57.796918 -82.073013 -0.903326 0.630436 -43.288256 -16.601204 -3.202839 1.271900 7.125000 0.000000 0.000000 8.455100 -34.398000 2.220200 
0.574877 18.109686 5.719686 4.118900 -0.518017 -5.278826 -1.659371 4.562839 4.845017 -24.437559 -10.273179 -6.601005 0.213824 7.064398 25.306342 -1.159103 5.173568 6.361797 0.042800 -1.335100 -3.671300 -0.651682 -3.954859 3.627735 16.019870 6.807793 -24.781083 -13.153073 -17.714135 67.501689 4.147541 -16.761102 6.568689 -0.657600 -5.186600 14.441500 -3.374283 -1.245235 12.312330 0.415231 -2.338490 8.499334 3.927512 -1.034369 -9.503647 -3.376751 -3.664814 -8.257413 -0.739267 -3.618081 27.020201 -1.167000 -1.846300 10.646200 -1.938971 1.099071 -1.039740 -89.628077 19.089484 2.509742 21.847267 -30.891230 -6.248052 0.086256 -1.801194 -6.553928 16.712420 47.891549 13.006300 -7.125000 0.000000 0.000000 -51.636500 76.308200 -39.943000 1.180665 -0.527803 0.668400 91.865374 -16.767223 -9.687722 -116.459403 57.692211 -82.345681 -0.942903 0.674348 -38.691374 -16.466000 -2.312853 1.007600 7.125000 0.000000 0.000000 8.535100 -33.512900 2.426700 
0.576296 18.092459 5.896618 4.309678 -0.454633 -5.124287 -1.657478 4.560637 4.895915 -24.680617 -9.944946 -6.225488 0.204700 7.016383 25.262894 -1.057701 4.839252 5.985180 0.058700 -1.563100 -4.299800 -0.632816 -3.900622 3.561016 15.862672 7.171431 -25.835145 -12.728810 -17.640127 66.347245 4.088038 -16.341656 5.936554 -0.735200 -5.477800 15.276400 -3.725974 -1.308805 12.927399 0.490629 -2.503988 7.864667 4.285137 -1.046199 -10.437249 -3.554776 -3.423530 -7.293753 -0.697367 -3.319494 26.842266 -1.083500 -1.718400 10.393000 -1.900363 1.115723 -1.044934 -89.642533 19.881033 3.279734 22.543646 -31.707026 -6.658422 0.100831 -1.788766 -6.925168 17.024258 48.096115 13.286700 -7.125000 0.000000 0.000000 -52.124300 76.528500 -40.564800 1.194096 -0.552452 0.670476 90.986110 -17.276570 -8.677576 -118.579101 57.200955 -84.072249 -0.975229 0.726635 -34.158531 -15.904240 -1.422137 0.726800 7.125000 0.000000 0.000000 8.956500 -32.608600 2.747100 
0.571735 18.080096 6.079630 4.518658 -0.048241 -4.998131 -1.646688 4.545768 4.942048 -24.944729 -9.800802 -5.793443 0.237603 7.027062 25.429823 -0.891249 4.303572 5.532765 0.077100 -1.790700 -4.927500 -0.606739 -3.870404 3.513413 15.660647 7.249048 -26.784203 -12.210375 -17.524791 64.916430 4.053036 -15.969986 5.089695 -0.724700 -5.439500 15.166500 -4.113513 -1.483123 12.351341 0.497090 -2.789998 8.347249 4.548145 -1.226262 -9.560342 -3.229517 -3.207152 -8.133054 -0.842701 -2.997296 26.577503 -1.179000 -1.561800 10.447300 -1.910871 1.022673 -1.031624 -89.502774 18.936871 3.919626 23.443648 -32.714259 -7.189415 0.127704 -1.775232 -7.377148 16.931647 48.326335 13.243600 -7.125000 0.000000 0.000000 -53.037500 76.595200 -41.409000 1.218990 -0.497047 0.667770 90.419172 -15.375585 -7.892064 -119.073249 57.056021 -84.448577 -1.005809 0.802370 -29.118632 -15.305336 -0.184632 0.375800 7.125000 0.000000 0.000000 9.371700 -31.364000 3.161800 
0.567885 18.068443 6.264770 4.514616 0.081615 -5.041077 -1.641745 4.568529 5.017068 -24.951286 -9.485110 -5.263934 0.257413 7.025758 25.524109 -0.768254 3.917666 5.053128 0.097700 -2.015400 -5.548200 -0.558511 -3.827985 3.454697 15.747833 7.484495 -27.377222 -11.631501 -17.336700 63.291547 4.042720 -15.684103 4.186730 -0.622400 -5.048800 14.047800 -4.154962 -1.557059 12.698389 0.506542 -2.898642 8.197394 4.637712 -1.266490 -9.869153 -3.257326 -3.195750 -8.283073 -0.613714 -3.014032 26.751538 -1.095100 -1.546800 10.546600 -1.885364 1.010383 -1.031467 -89.117900 19.141794 5.141531 24.368032 -33.728712 -7.757316 0.157816 -1.759539 -8.112532 17.104070 48.877455 13.474800 -7.125000 0.000000 0.000000 -55.011500 76.912700 -43.418000 1.229693 -0.479391 0.675743 89.748998 -15.015230 -6.696456 -120.428679 56.709793 -85.539443 -1.046295 0.841880 -24.392217 -15.751305 0.412559 0.225600 7.125000 0.000000 0.000000 9.050700 -30.770700 3.181400 
0.565149 18.045743 6.449201 4.551802 0.154035 -5.065989 -1.642912 4.583245 5.087591 -24.996893 -9.163872 -4.748652 0.269422 7.009086 25.576344 -0.626184 3.479838 4.601629 0.088300 -1.916400 -5.274700 -0.504089 -3.787369 3.394378 15.752475 7.718139 -27.928435 -11.004879 -17.112092 61.507237 4.009925 -15.355323 3.353212 -0.529700 -4.663900 12.952300 -4.227291 -1.564529 12.891000 0.513379 -2.927424 8.061480 4.702158 -1.267192 -10.085433 -2.844323 -2.982871 -7.959540 -0.920081 -2.754213 26.340611 -1.254500 -1.417200 10.316000 -1.860194 0.962264 -1.024252 -88.638256 19.191747 6.411676 25.146322 -34.557306 -8.246220 0.180870 -1.741987 -8.557314 17.140226 49.333034 13.576600 -7.125000 0.000000 0.000000 -56.772500 77.115400 -45.154700 1.240410 -0.459872 0.675451 89.149760 -14.083060 -6.107239 -120.935644 56.555255 -85.935752 -1.067545 0.896132 -19.976217 -15.707879 1.153484 0.026300 7.125000 0.000000 0.000000 9.085200 -30.016900 3.359700 
0.568189 18.028618 6.627146 4.911642 0.583898 -4.948729 -1.642584 4.579083 5.136429 -25.432653 -9.030260 -4.208353 0.276352 6.969097 25.587170 -0.466017 2.972550 4.261208 0.067200 -1.672500 -4.601300 -0.450697 -3.741710 3.325279 15.298308 7.537695 -28.728498 -10.339557 -16.876841 59.501131 4.038391 -15.301381 2.956086 -0.488000 -4.479300 12.429100 -4.523588 -1.677388 12.991826 0.409201 -3.134642 7.840531 4.818161 -1.342161 -10.306494 -2.605621 -2.860691 -7.553097 -1.022844 -2.634981 26.047552 -1.320800 -1.346000 10.119800 -1.845398 0.917094 -1.014473 -88.167382 19.037645 7.286753 25.607476 -35.038599 -8.538286 0.195300 -1.728003 -8.528352 16.814852 49.719640 13.368500 -7.125000 0.000000 0.000000 -58.514500 77.131600 -46.707800 1.251580 -0.428355 0.677389 88.509226 -13.047953 -5.576048 -121.219861 56.454414 -86.158945 -1.074955 0.957944 -16.522692 -15.384229 2.181800 -0.239700 7.125000 0.000000 0.000000 9.290800 -28.975900 3.670900 
0.571127 18.013519 6.811374 5.140511 1.122830 -4.808456 -1.653336 4.586337 5.192780 -25.698156 -8.950268 -3.611525 0.260206 6.898818 25.480947 -0.347622 2.597087 4.021815 0.045500 -1.376200 -3.784700 -0.380536 -3.699240 3.256788 14.980547 7.210632 -29.415355 -9.626206 -16.580609 57.297448 4.120589 -15.429623 2.679075 -0.449000 -4.299000 11.919400 -4.697837 -1.833046 13.034011 0.382121 -3.373084 7.693909 4.955336 -1.441878 -10.419370 -2.862459 -2.835629 -7.270919 -0.594558 -2.675755 25.728227 -1.124700 -1.345300 9.946600 -1.811219 0.866155 -1.006366 -87.754298 19.274623 8.827861 26.808938 -36.248843 -9.319364 0.224796 -1.704838 -9.448611 17.243241 50.207432 13.797500 -7.125000 0.000000 0.000000 -60.278700 77.479100 -48.629100 1.247275 -0.386415 0.686387 87.694689 -11.712657 -4.855421 -121.178848 56.437500 -86.122288 -1.073632 1.011699 -13.207539 -15.136673 3.054317 -0.456900 7.125000 0.000000 0.000000 9.449000 -28.087300 3.936800 
